<?xml version="1.0" encoding="utf-8"?>
<!-- Generator: Adobe Illustrator 19.0.0, SVG Export Plug-In . SVG Version: 6.00 Build 0)  -->
<svg version="1.1" id="Layer_1" xmlns="http://www.w3.org/2000/svg" xmlns:xlink="http://www.w3.org/1999/xlink" x="0px" y="0px"
	 viewBox="0 0 99.2 46" style="enable-background:new 0 0 99.2 46;" xml:space="preserve">
<style type="text/css">
	.st0{fill:#EDAD20;}
</style>
<g id="XMLID_5_">
	<g id="XMLID_1_">
		<path id="XMLID_347_" class="st0" d="M37.8,42.2c-5.9-1-9.2-5.3-9.8-10.7c-0.3-2.9,0.4-5.7,2.4-8.2c1.5-1.9,3.2-3.3,5.3-4.2
			c4.7-1.9,10.4-0.8,13.9,3.4c3.3,3.9,3.8,9.2,1.2,13.5C49.1,39.9,42.4,43,37.8,42.2z M34.8,24.4c-3.5,3.1-5.1,10.9,2.2,13.4
			c3,1.7,7.9-0.1,10.1-3.6c0.9-1.3,1.1-3.3,1-4.9c-0.1-2.6-1.7-4.4-3.3-5.6c-0.2-0.2-0.4-0.3-0.7-0.4C41.5,22,36.9,22.6,34.8,24.4z"
			/>
		<path id="XMLID_346_" class="st0" d="M5.4,36L5.4,36c0.7-0.6,1.7-0.7,2.5-0.4c1.3,0.4,2.5,0.9,3.8,1.1c2.3,0.5,4.6,0.2,6.2-1.8
			c1.2-1.5,1.4-3.4,1.4-5.2c0.1-6.7,0-13.4,0-20.1c0-1,0.2-1.7,1.1-2.3c0.2-0.1,0.3-0.1,0.5-0.1l1.1,0c0.2,0,0.4,0,0.5,0.2
			c0.7,0.5,1,1.3,1,2.3c0,7.4,0.1,14.8-0.1,22.1c-0.1,2.6-0.8,5.1-2.8,7c-1.6,1.5-3.7,2.1-5.9,2.3c-2.8,0.2-5.5,0-8.1-1.4
			c-1.4-0.8-1.8-1.2-1.8-2.9C5.1,36.5,5.2,36.2,5.4,36z"/>
		<path id="XMLID_345_" class="st0" d="M60.6,7.9L60.6,7.9c0.2,0.3,0.4,0.6,0.4,0.9c0.4,10.1,0.3,20.2,0.3,30c0,0.3-0.1,0.7-0.4,0.9
			c-1.1,1.2-1.8,1.3-3,0.6c-0.3-0.2-0.6-0.6-0.7-1c-0.1-0.6-0.2-1.2-0.2-1.9c0-9.1,0-18.2,0-27.3c0-2.1,0.5-2.7,2.5-2.7
			C59.9,7.5,60.3,7.7,60.6,7.9z"/>
		<path id="XMLID_2_" class="st0" d="M82.5,10.1c0,9.1,0,18.1,0,27.2c0,0.6-0.2,1.2-0.3,1.7c-0.3,1.3-1,1.9-2,1.8
			c-1-0.1-1.9-1.1-2-2.3c0-1.4,0-2.7,0-4.1c0-8.2,0-16.5,0-24.7c0-1.7,1-2.6,2.6-2.3C80.8,7.4,82.5,7.5,82.5,10.1z"/>
		<path id="XMLID_343_" class="st0" d="M90.7,16.3h0.5c0.8,0,1.4,0.5,1.6,1.3c0.1,0.4,0.1,0.7,0.1,1.1c0,6.5,0,12.9,0,19.4
			c0,0.7-0.2,1.5-0.6,2c-0.4,0.4-1.2,0.8-1.7,0.7c-0.5,0-1.1-0.6-1.4-1.1c-0.4-0.8-0.6-1.7-0.6-2.6c0-5.8-0.1-11.6,0-17.5
			c0-0.7,0.2-1.4,0.4-2.2C89.3,16.8,89.9,16.3,90.7,16.3z"/>
		<path id="XMLID_340_" class="st0" d="M90.6,12.4l-0.2,0c-0.6-0.1-1.1-0.4-1.4-1c-0.6-1.2-0.5-2.3,0.3-3.3c0.4-0.4,0.9-0.6,1.4-0.6
			l0,0c0.5,0,1,0.2,1.4,0.6c1.2,1.2,1.2,2.7,0.1,3.9C91.9,12.3,91.2,12.5,90.6,12.4z"/>
	</g>
	<path id="XMLID_4_" class="st0" d="M69.7,16.4h0.5c0.8,0,1.4,0.5,1.6,1.3c0.1,0.4,0.1,0.7,0.1,1.1c0,6.5,0,12.9,0,19.4
		c0,0.7-0.2,1.5-0.6,2c-0.4,0.4-1.2,0.8-1.7,0.7c-0.5,0-1.1-0.6-1.4-1.1c-0.4-0.8-0.6-1.7-0.6-2.6c0-5.8-0.1-11.6,0-17.5
		c0-0.7,0.2-1.4,0.4-2.2C68.3,16.9,68.9,16.4,69.7,16.4z"/>
	<path id="XMLID_3_" class="st0" d="M69.7,12.5l-0.2,0c-0.6-0.1-1.1-0.4-1.4-1c-0.6-1.2-0.5-2.3,0.3-3.3c0.4-0.4,0.9-0.6,1.4-0.6h0
		c0.5,0,1,0.2,1.4,0.6c1.2,1.2,1.2,2.7,0.1,3.9C70.9,12.4,70.3,12.6,69.7,12.5z"/>
</g>
</svg>
